<svg xmlns="http://www.w3.org/2000/svg" viewBox="0 0 100 100">
  <path fill="#6B3F1F" d="M91,55.1l-7.3-2.4c-0.6-2-1.6-3.8-2.7-5.5l3.6-6.8c0.9-1.6,0.4-3.7-1.1-4.9l-7-7c-1.2-1.2-3.2-1.5-4.7-0.9 l-6.9,3.5c-1.8-1.1-3.8-1.9-5.9-2.7l-2.3-7.5c-0.4-1.8-2-3.1-4-3.1h-9.9c-1.9,0-3.6,1.3-4,3.1l-2.3,7.5 c-2.1,0.7-4.1,1.6-5.9,2.7l-6.9-3.5c-1.6-0.8-3.5-0.4-4.7,0.9l-7,7c-1.2,1.2-1.5,3.2-0.9,4.7l3.5,6.9c-1.1,1.8-1.9,3.8-2.7,5.9 l-7.5,2.3c-1.8,0.4-3.1,2-3.1,4v9.9c0,1.9,1.3,3.6,3.1,4l7.5,2.3c0.7,2.1,1.6,4.1,2.7,5.9l-3.5,6.9c-0.8,1.6-0.4,3.5,0.9,4.7l7,7 c1.2,1.2,3.2,1.5,4.7,0.9l6.9-3.5c1.8,1.1,3.8,1.9,5.9,2.7l2.3,7.5c0.4,1.8,2,3.1,4,3.1h9.9c1.9,0,3.6-1.3,4-3.1l2.3-7.5 c2.1-0.7,4.1-1.6,5.9-2.7l6.9,3.5c1.6,0.8,3.5,0.4,4.7-0.9l7-7c1.2-1.2,1.5-3.2,0.9-4.7l-3.5-6.9c1.1-1.8,1.9-3.8,2.7-5.9 l7.5-2.3c1.8-0.4,3.1-2,3.1-4v-9.9C94.2,57.1,92.9,55.5,91,55.1z M50,71.4c-11.8,0-21.4-9.6-21.4-21.4S38.2,28.6,50,28.6 S71.4,38.2,71.4,50S61.8,71.4,50,71.4z"/>
  <path fill="#6B3F1F" d="M60.1,59.3H40.6v3.3h19.5V59.3z M57,38c0-2-1.6-3.8-4-3.8c-2.4,0-3.3,1.3-3.3,1.3 c-4.5,0.7-9.5,4.7-10.8,9.7c-0.6,2.2,0,4.4,0,4.4l-2.8,2.2c0,0-1,2.2,1.5,3.3h3.5v1.2H47c2.3,0,3-1.6,3-1.6L52,48.2 c0,0,1.5-1.5,1.5-4c0-2.3-1.1-3.6-1.1-3.6S57,40.1,57,38z"/>
  <rect x="42.5" y="64.5" width="15" height="2" fill="#6B3F1F" />
</svg>
